<svg width="980" height="240" viewBox="0 0 980 240" fill="none" xmlns="http://www.w3.org/2000/svg" role="img" aria-labelledby="title desc">
  <title id="title">LazyAgent logo</title>
  <desc id="desc">LazyAgent wordmark with a dark brass command sigil.</desc>
  <rect width="980" height="240" rx="24" fill="#0A0A0B"/>
  <g transform="translate(42 36) scale(0.328125)">
    <rect width="512" height="512" rx="88" fill="#0A0A0B"/>
    <path d="M256 58L427.473 157V355L256 454L84.527 355V157L256 58Z" fill="#101015" stroke="#B08D57" stroke-width="10"/>
    <circle cx="256" cy="256" r="122" fill="#111116" stroke="#B08D57" stroke-width="8"/>
    <path d="M177 178L335 336" stroke="#7F1D1D" stroke-width="18" stroke-linecap="round"/>
    <path d="M167 346H203L256 178L309 346H345L277 154H235L167 346Z" fill="#E6D0A2"/>
    <path d="M243 154H269V346H243V154Z" fill="#0A0A0B"/>
    <path d="M224 154H246V346H224V154Z" fill="#F3E7C8"/>
    <path d="M266 154H288V346H266V154Z" fill="#C6A46D"/>
    <circle cx="256" cy="256" r="28" fill="#7F1D1D" stroke="#E6D0A2" stroke-width="6"/>
    <circle cx="256" cy="256" r="8" fill="#F7E7BD"/>
  </g>
  <path d="M248 52H904" stroke="#3A3122" stroke-width="2"/>
  <text x="246" y="127" fill="#F3E7C8" font-family="Georgia, 'Times New Roman', serif" font-size="72" font-weight="700" letter-spacing="1">LazyAgent</text>
  <text x="251" y="170" fill="#B08D57" font-family="Segoe UI, Arial, sans-serif" font-size="20" font-weight="800" letter-spacing="4">MCP CONTROL PLANE</text>
  <path d="M248 190H904" stroke="#3A3122" stroke-width="2"/>
</svg>
