<svg width="512" height="512" viewBox="0 0 512 512" fill="none" xmlns="http://www.w3.org/2000/svg" role="img" aria-labelledby="lazyagent-mark-title lazyagent-mark-desc">
  <title id="lazyagent-mark-title">LazyAgent mark</title>
  <desc id="lazyagent-mark-desc">A stark fictional-corporate LazyAgent emblem with bracket rails and a red control core.</desc>
  <rect width="512" height="512" rx="32" fill="#070707"/>
  <rect x="28" y="28" width="456" height="456" rx="10" stroke="#27231F" stroke-width="4"/>
  <path d="M256 74L405 158V354L256 438L107 354V158L256 74Z" stroke="#E7E0D2" stroke-width="14" stroke-linejoin="miter"/>
  <path d="M256 101L374 169V343L256 411L138 343V169L256 101Z" stroke="#211E1B" stroke-width="5" stroke-linejoin="miter"/>
  <path d="M172 170H236V236H172" stroke="#E7E0D2" stroke-width="30" stroke-linecap="square" stroke-linejoin="miter"/>
  <path d="M340 170H276V236H340" stroke="#E7E0D2" stroke-width="30" stroke-linecap="square" stroke-linejoin="miter"/>
  <path d="M172 342H236V276H172" stroke="#E7E0D2" stroke-width="30" stroke-linecap="square" stroke-linejoin="miter"/>
  <path d="M340 342H276V276H340" stroke="#E7E0D2" stroke-width="30" stroke-linecap="square" stroke-linejoin="miter"/>
  <path d="M256 154V358" stroke="#8B1019" stroke-width="22" stroke-linecap="square"/>
  <rect x="226" y="226" width="60" height="60" fill="#070707" stroke="#E7E0D2" stroke-width="10"/>
  <rect x="244" y="244" width="24" height="24" fill="#8B1019"/>
  <path d="M170 132H218" stroke="#E7E0D2" stroke-width="7" stroke-linecap="square"/>
  <path d="M294 380H342" stroke="#E7E0D2" stroke-width="7" stroke-linecap="square"/>
</svg>
